<svg width="20" height="15" viewBox="0 0 20 15" fill="none" xmlns="http://www.w3.org/2000/svg">
<g clip-path="url(#clip0_2671_2258)">
<path d="M16.6396 1.24554C18.8054 4.44684 19.875 8.05781 19.4752 12.2149C19.4735 12.2325 19.4644 12.2486 19.45 12.2592C17.8099 13.4699 16.2208 14.2047 14.6541 14.692C14.6419 14.6957 14.6288 14.6955 14.6168 14.6914C14.6047 14.6873 14.5942 14.6795 14.5867 14.6691C14.2248 14.1628 13.8959 13.629 13.6078 13.0684C13.5912 13.0354 13.6063 12.9957 13.6404 12.9827C14.1627 12.7848 14.6594 12.5477 15.1371 12.2669C15.1748 12.2448 15.1771 12.1905 15.1424 12.1645C15.041 12.0888 14.9406 12.0093 14.8444 11.9298C14.8265 11.9151 14.8022 11.9122 14.7819 11.9221C11.6803 13.362 8.2826 13.362 5.14431 11.9221C5.12394 11.9129 5.09973 11.916 5.08223 11.9305C4.98634 12.01 4.88566 12.0888 4.78523 12.1645C4.75047 12.1905 4.75335 12.2448 4.79122 12.2669C5.26896 12.5424 5.76564 12.7848 6.28725 12.9836C6.32105 12.9966 6.33711 13.0354 6.32033 13.0684C6.03843 13.6297 5.70955 14.1635 5.34087 14.6698C5.32481 14.6903 5.29845 14.6997 5.27352 14.692C3.7142 14.2047 2.12516 13.4699 0.485062 12.2592C0.471399 12.2486 0.461571 12.2317 0.460132 12.2141C0.125976 8.61835 0.806993 4.9775 3.29303 1.24482C3.29902 1.23494 3.30813 1.22723 3.31868 1.22265C4.54192 0.658255 5.85242 0.243032 7.22212 0.0058987C7.24705 0.00204289 7.27198 0.0136103 7.28493 0.0357813C7.45416 0.337017 7.64761 0.723322 7.77849 1.03902C9.22227 0.817308 10.6886 0.817308 12.1626 1.03902C12.2934 0.73007 12.4802 0.337017 12.6487 0.0357813C12.6547 0.0247825 12.664 0.0159709 12.6753 0.0106044C12.6865 0.00523796 12.6992 0.00359101 12.7115 0.0058987C14.0819 0.243755 15.3924 0.658978 16.6147 1.22265C16.6255 1.22723 16.6343 1.23494 16.6396 1.24554ZM8.51248 8.08239C8.52759 7.01939 7.75668 6.13978 6.78897 6.13978C5.82916 6.13978 5.06569 7.01168 5.06569 8.08239C5.06569 9.15287 5.84427 10.0248 6.78897 10.0248C7.74901 10.0248 8.51248 9.15287 8.51248 8.08239ZM14.8845 8.08239C14.8996 7.01939 14.1287 6.13978 13.1612 6.13978C12.2011 6.13978 11.4377 7.01168 11.4377 8.08239C11.4377 9.15287 12.2162 10.0248 13.1612 10.0248C14.1287 10.0248 14.8845 9.15287 14.8845 8.08239Z" fill="white"/>
</g>
<defs>
<clipPath id="clip0_2671_2258">
<rect width="20" height="14.702" fill="white"/>
</clipPath>
</defs>
</svg>
