<svg width="20" height="20" viewBox="0 0 20 20" fill="none" xmlns="http://www.w3.org/2000/svg">
<path fill-rule="evenodd" clip-rule="evenodd" d="M10 0C4.47671 0 0 4.47671 0 10C0 14.4164 2.86575 18.1644 6.83836 19.4904C7.33699 19.5836 7.52329 19.2712 7.52329 19.0082C7.52329 18.7671 7.51233 17.9836 7.51233 17.1452C4.72877 17.7479 4.14247 15.9671 4.14247 15.9671C3.68767 14.811 3.03014 14.5041 3.03014 14.5041C2.12055 13.8849 3.09589 13.8959 3.09589 13.8959C4.09863 13.9671 4.63014 14.926 4.63014 14.926C5.52329 16.4548 6.96986 16.011 7.53973 15.7589C7.6274 15.1123 7.89041 14.674 8.17534 14.4219C5.95616 14.1699 3.61644 13.3096 3.61644 9.47945C3.61644 8.38904 4.00548 7.49589 4.64658 6.79452C4.54247 6.54247 4.20274 5.52329 4.74521 4.14794C4.74521 4.14794 5.58356 3.87945 7.49589 5.1726C8.29589 4.95342 9.15069 4.83836 10 4.83836C10.8493 4.84384 11.7041 4.95342 12.5041 5.1726C14.411 3.87945 15.2493 4.14794 15.2493 4.14794C15.7918 5.52329 15.4521 6.54247 15.3479 6.79452C15.989 7.49589 16.3781 8.38904 16.3781 9.47945C16.3781 13.3205 14.0384 14.1644 11.8137 14.411C12.1699 14.7233 12.4932 15.3315 12.4932 16.263C12.4932 17.6 12.4822 18.6795 12.4822 19.0082C12.4822 19.2767 12.663 19.5836 13.1671 19.4904C17.1397 18.1644 20 14.4219 20 10C20 4.47671 15.5233 0 10 0Z" fill="white"/>
<path d="M3.78629 14.3565C3.76437 14.4058 3.68766 14.4222 3.61643 14.3893C3.54519 14.3565 3.50136 14.2907 3.52875 14.2414C3.55067 14.1921 3.62738 14.1756 3.69862 14.2085C3.76985 14.2414 3.81369 14.3071 3.78629 14.3565Z" fill="white"/>
<path d="M4.19145 14.811C4.14213 14.8548 4.04898 14.8329 3.98871 14.7672C3.92296 14.6959 3.912 14.6028 3.96131 14.5589C4.01063 14.5151 4.0983 14.537 4.16405 14.6028C4.2298 14.674 4.24076 14.7672 4.19145 14.811Z" fill="white"/>
<path d="M4.58627 15.386C4.52599 15.4299 4.42737 15.3915 4.36161 15.2984C4.30134 15.2107 4.30134 15.1011 4.36161 15.0573C4.42189 15.0134 4.52052 15.0518 4.58627 15.1395C4.65202 15.2326 4.65202 15.3422 4.58627 15.386Z" fill="white"/>
<path d="M5.12931 15.9395C5.07452 15.9998 4.95945 15.9834 4.87178 15.9012C4.78411 15.819 4.76219 15.7039 4.81698 15.6436C4.87178 15.5834 4.99233 15.5998 5.07452 15.682C5.16219 15.7697 5.18411 15.8847 5.12931 15.9395Z" fill="white"/>
<path d="M5.87351 16.2634C5.8516 16.3401 5.73653 16.3785 5.62146 16.3456C5.50639 16.3127 5.43516 16.2196 5.45708 16.1428C5.47899 16.0661 5.59406 16.0278 5.70913 16.0606C5.81872 16.0935 5.89543 16.1867 5.87351 16.2634Z" fill="white"/>
<path d="M6.69069 16.3237C6.69617 16.4059 6.59754 16.4772 6.47699 16.4772C6.35644 16.4826 6.26329 16.4114 6.25781 16.3292C6.25781 16.247 6.35096 16.1758 6.47151 16.1758C6.59206 16.1758 6.69069 16.2415 6.69069 16.3237Z" fill="white"/>
<path d="M7.45222 16.1968C7.46866 16.279 7.38647 16.3612 7.26592 16.3831C7.15085 16.405 7.04127 16.3557 7.03031 16.2735C7.01387 16.1913 7.10154 16.1092 7.21661 16.0872C7.33168 16.0653 7.43579 16.1146 7.45222 16.1968Z" fill="white"/>
</svg>
