<svg width="26" height="26" viewBox="0 0 26 26" fill="none" xmlns="http://www.w3.org/2000/svg">
<g filter="url(#filter0_d_2671_2253)">
<path d="M13.0003 18.3337C17.6028 18.3337 21.3337 14.6028 21.3337 10.0003C21.3337 5.39783 17.6028 1.66699 13.0003 1.66699C8.39783 1.66699 4.66699 5.39783 4.66699 10.0003C4.66699 14.6028 8.39783 18.3337 13.0003 18.3337Z" stroke="white" stroke-linecap="round" stroke-linejoin="round"/>
<path d="M9.66665 2.5H10.5C8.87501 7.36797 8.87501 12.632 10.5 17.5H9.66665M15.5 2.5C17.125 7.36797 17.125 12.632 15.5 17.5" stroke="white" stroke-linecap="round" stroke-linejoin="round"/>
<path d="M5.5 13.3333V12.5C10.368 14.125 15.632 14.125 20.5 12.5V13.3333M5.5 7.49998C10.368 5.87501 15.632 5.87501 20.5 7.49998" stroke="white" stroke-linecap="round" stroke-linejoin="round"/>
</g>
<defs>
<filter id="filter0_d_2671_2253" x="-1" y="0" width="28" height="28" filterUnits="userSpaceOnUse" color-interpolation-filters="sRGB">
<feFlood flood-opacity="0" result="BackgroundImageFix"/>
<feColorMatrix in="SourceAlpha" type="matrix" values="0 0 0 0 0 0 0 0 0 0 0 0 0 0 0 0 0 0 127 0" result="hardAlpha"/>
<feOffset dy="4"/>
<feGaussianBlur stdDeviation="2"/>
<feComposite in2="hardAlpha" operator="out"/>
<feColorMatrix type="matrix" values="0 0 0 0 0 0 0 0 0 0 0 0 0 0 0 0 0 0 0.25 0"/>
<feBlend mode="normal" in2="BackgroundImageFix" result="effect1_dropShadow_2671_2253"/>
<feBlend mode="normal" in="SourceGraphic" in2="effect1_dropShadow_2671_2253" result="shape"/>
</filter>
</defs>
</svg>
