<svg width="20" height="19" viewBox="0 0 20 19" fill="none" xmlns="http://www.w3.org/2000/svg">
<path d="M19.8681 2.88126C19.1401 3.2072 18.3561 3.4245 17.5361 3.5251C18.3761 3.01807 19.0161 2.21729 19.3201 1.26762C18.5361 1.73038 17.6681 2.07243 16.7441 2.25351C16.0041 1.46078 14.9481 0.96582 13.7801 0.96582C11.5361 0.96582 9.72008 2.79273 9.72008 5.0502C9.72008 5.37213 9.75608 5.68198 9.82408 5.97975C6.45208 5.81075 3.46008 4.18504 1.45608 1.71429C1.10808 2.31789 0.908078 3.01807 0.908078 3.76654C0.908078 5.183 1.62408 6.43447 2.71208 7.16684C2.04808 7.14672 1.42008 6.96162 0.872078 6.65579C0.872078 6.67189 0.872078 6.68798 0.872078 6.7081C0.872078 8.68792 2.27208 10.3378 4.12808 10.712C3.78808 10.8046 3.42808 10.8569 3.06008 10.8569C2.80008 10.8569 2.54408 10.8327 2.29608 10.7844C2.81208 12.4061 4.31208 13.5892 6.08808 13.6214C4.70008 14.7159 2.94808 15.3678 1.04808 15.3678C0.720078 15.3678 0.396078 15.3477 0.0800781 15.3115C1.87608 16.4704 4.01208 17.1464 6.30408 17.1464C13.7721 17.1464 17.8561 10.9253 17.8561 5.52504C17.8561 5.34798 17.8521 5.17093 17.8441 4.99789C18.6361 4.41843 19.3241 3.69813 19.8681 2.88126Z" fill="white"/>
</svg>
