<svg width="24" height="20" viewBox="0 0 24 20" fill="none" xmlns="http://www.w3.org/2000/svg">
<path d="M11.9993 18.6663H4.63268C3.41924 18.6663 2.81251 18.6663 2.34904 18.4302C1.94135 18.2225 1.60989 17.891 1.40217 17.4833C1.16602 17.0198 1.16602 16.4131 1.16602 15.1997V4.79967C1.16602 3.58623 1.16602 2.9795 1.40217 2.51603C1.60989 2.10834 1.94135 1.77689 2.34904 1.56916C2.81251 1.33301 3.41924 1.33301 4.63268 1.33301H5.06602C7.49291 1.33301 8.70636 1.33301 9.63331 1.80531C10.4487 2.22076 11.1116 2.88368 11.527 3.69905C11.9993 4.626 11.9993 5.83945 11.9993 8.26634M11.9993 18.6663V8.26634M11.9993 18.6663H19.366C20.5795 18.6663 21.1862 18.6663 21.6497 18.4302C22.0573 18.2225 22.3888 17.891 22.5965 17.4833C22.8327 17.0198 22.8327 16.4131 22.8327 15.1997V4.79967C22.8327 3.58623 22.8327 2.9795 22.5965 2.51603C22.3888 2.10834 22.0573 1.77689 21.6497 1.56916C21.1862 1.33301 20.5795 1.33301 19.366 1.33301H18.9327C16.5058 1.33301 15.2923 1.33301 14.3654 1.80531C13.55 2.22076 12.8871 2.88368 12.4717 3.69905C11.9993 4.626 11.9993 5.83945 11.9993 8.26634" stroke="white" stroke-linecap="round" stroke-linejoin="round"/>
</svg>
