<svg width="22" height="24" viewBox="0 0 22 24" fill="none" xmlns="http://www.w3.org/2000/svg">
<path d="M8.5625 21.4788L10.1582 22.3653C10.4655 22.536 10.6191 22.6214 10.7818 22.6548C10.9257 22.6844 11.0743 22.6844 11.2182 22.6548C11.3809 22.6214 11.5345 22.536 11.8418 22.3653L13.4375 21.4788M3.6875 18.7705L2.14155 17.9116C1.81708 17.7314 1.65482 17.6412 1.53669 17.513C1.43217 17.3996 1.35308 17.2652 1.30469 17.1187C1.25 16.9532 1.25 16.7676 1.25 16.3964V14.708M1.25 9.29131V7.60288C1.25 7.23168 1.25 7.04608 1.30469 6.88055C1.35308 6.73411 1.43217 6.59969 1.53669 6.48627C1.65483 6.35808 1.81707 6.26794 2.14155 6.08767L3.6875 5.22881M8.5625 2.52048L10.1582 1.63397C10.4655 1.46328 10.6191 1.37793 10.7818 1.34448C10.9257 1.31486 11.0743 1.31486 11.2182 1.34448C11.3809 1.37793 11.5345 1.46328 11.8418 1.63397L13.4375 2.52048M18.3125 5.22881L19.8585 6.08767C20.1829 6.26794 20.3452 6.35807 20.4633 6.48627C20.5678 6.59969 20.6469 6.73411 20.6953 6.88055C20.75 7.04608 20.75 7.23168 20.75 7.60288V9.29131M20.75 14.708V16.3964C20.75 16.7676 20.75 16.9532 20.6953 17.1187C20.6469 17.2652 20.5678 17.3996 20.4633 17.513C20.3452 17.6412 20.1829 17.7313 19.8585 17.9116L18.3125 18.7705M8.5625 10.6455L11 11.9996M11 11.9996L13.4375 10.6455M11 11.9996V14.708M1.25 6.58298L3.6875 7.93714M18.3125 7.93714L20.75 6.58298M11 20.1246V22.833" stroke="white" stroke-linecap="round" stroke-linejoin="round"/>
</svg>
