<svg width="24" height="22" viewBox="0 0 24 22" fill="none" xmlns="http://www.w3.org/2000/svg">
<path d="M19.5827 20.75L22.8327 17.5M22.8327 17.5L19.5827 14.25M22.8327 17.5H16.3327M11.9993 14.7917H7.12435C5.61249 14.7917 4.85656 14.7917 4.24145 14.9783C2.85651 15.3984 1.77273 16.4822 1.35261 17.8671C1.16602 18.4822 1.16602 19.2381 1.16602 20.75M14.7077 6.125C14.7077 8.81739 12.5251 11 9.83268 11C7.14029 11 4.95768 8.81739 4.95768 6.125C4.95768 3.43261 7.14029 1.25 9.83268 1.25C12.5251 1.25 14.7077 3.43261 14.7077 6.125Z" stroke="white" stroke-linecap="round" stroke-linejoin="round"/>
</svg>
