<svg width="15" height="18" viewBox="0 0 15 18" fill="none" xmlns="http://www.w3.org/2000/svg">
<path d="M5.41463 15.75C5.94348 16.2168 6.63817 16.5 7.399 16.5C8.15984 16.5 8.85452 16.2168 9.38337 15.75M11.899 6C11.899 4.80653 11.4249 3.66193 10.581 2.81802C9.73707 1.97411 8.59248 1.5 7.399 1.5C6.20553 1.5 5.06093 1.97411 4.21702 2.81802C3.37311 3.66193 2.899 4.80653 2.899 6C2.899 8.31764 2.31435 9.90447 1.66125 10.9541C1.11035 11.8394 0.834894 12.2821 0.844995 12.4056C0.856178 12.5423 0.885146 12.5944 0.995333 12.6762C1.09485 12.75 1.54344 12.75 2.44064 12.75H12.3574C13.2546 12.75 13.7032 12.75 13.8027 12.6762C13.9129 12.5944 13.9418 12.5423 13.953 12.4056C13.9631 12.2821 13.6877 11.8394 13.1368 10.9541C12.4836 9.90447 11.899 8.31764 11.899 6Z" stroke="#C0C0C0" stroke-width="1.5" stroke-linecap="round" stroke-linejoin="round"/>
</svg>
