<svg width="16" height="16" viewBox="0 0 16 16" fill="none" xmlns="http://www.w3.org/2000/svg">
<g clip-path="url(#clip0_5745_1565)">
<path d="M14.1866 4.26654L7.8266 10.6265C7.19327 11.2598 5.31325 11.5532 4.89325 11.1332C4.47325 10.7132 4.75991 8.83317 5.39325 8.19984L11.7599 1.83318C11.9169 1.66189 12.107 1.5242 12.3187 1.4284C12.5304 1.3326 12.7593 1.28066 12.9917 1.27577C13.2239 1.27088 13.4549 1.31311 13.6704 1.39992C13.8859 1.48672 14.0817 1.61632 14.2457 1.78086C14.4098 1.94539 14.5389 2.14146 14.6251 2.35723C14.7113 2.57301 14.7529 2.80401 14.7474 3.03631C14.7419 3.26861 14.6893 3.4974 14.5929 3.70884C14.4965 3.92027 14.3583 4.11 14.1866 4.26654Z" stroke="#E8E6EA" stroke-linecap="round" stroke-linejoin="round"/>
<path d="M7.33301 2.66699H3.99967C3.29243 2.66699 2.61419 2.94794 2.11409 3.44804C1.614 3.94814 1.33301 4.62641 1.33301 5.33366V12.0003C1.33301 12.7076 1.614 13.3859 2.11409 13.8859C2.61419 14.3861 3.29243 14.667 3.99967 14.667H11.333C12.8063 14.667 13.333 13.467 13.333 12.0003V8.66699" stroke="#E8E6EA" stroke-linecap="round" stroke-linejoin="round"/>
</g>
<defs>
<clipPath id="clip0_5745_1565">
<rect width="16" height="16" fill="white"/>
</clipPath>
</defs>
</svg>
