<svg width="17" height="16" viewBox="0 0 17 16" fill="none" xmlns="http://www.w3.org/2000/svg">
<path d="M11.5478 14.2652L7.80242 8.82339L7.26904 8.04875L2.92291 1.73421H4.79242L8.30719 6.84093L8.84053 7.61557L13.4174 14.2652H11.5478ZM14.1902 13.7336L9.47282 6.88016L8.93949 6.10505L5.56495 1.20253L5.28527 0.79625H1.13867L2.14995 2.26576L6.63677 8.78499L7.17013 9.55927L10.7752 14.7973L11.0549 15.2031H15.2015L14.1902 13.7336Z" fill="white"/>
<path d="M7.26962 8.04875L7.803 8.82339L7.1707 9.55927L2.31936 15.2031H1.12305L6.63735 8.78499L7.26962 8.04875Z" fill="white"/>
<path d="M14.7037 0.795915L9.47422 6.87983L8.84193 7.61523L8.30859 6.8406L8.94089 6.10472L12.4833 1.98158L13.5074 0.795915H14.7037Z" fill="white"/>
</svg>
