<svg width="22" height="28" viewBox="0 0 22 28" fill="none" xmlns="http://www.w3.org/2000/svg">
<g clip-path="url(#clip0_5745_1574)">
<path d="M21 10.5H1M1 14.5H4.54668C5.08687 14.5 5.35696 14.5 5.61813 14.5465C5.84995 14.5879 6.0761 14.6563 6.29191 14.7506C6.53504 14.8567 6.75977 15.0065 7.20924 15.3062L7.79076 15.6938C8.24023 15.9935 8.46496 16.1433 8.70809 16.2494C8.9239 16.3437 9.15005 16.4121 9.38186 16.4534C9.64304 16.5 9.91313 16.5 10.4533 16.5H11.5467C12.0869 16.5 12.357 16.5 12.6181 16.4534C12.85 16.4121 13.0761 16.3437 13.2919 16.2494C13.535 16.1433 13.7598 15.9935 14.2092 15.6938L14.7908 15.3062C15.2402 15.0065 15.465 14.8567 15.7081 14.7506C15.9239 14.6563 16.15 14.5879 16.3819 14.5465C16.643 14.5 16.9131 14.5 17.4533 14.5H21M1 9.2V18.8C1 19.9201 1 20.4802 1.21799 20.908C1.40973 21.2843 1.71569 21.5903 2.09202 21.782C2.51984 22 3.07989 22 4.2 22H17.8C18.9201 22 19.4802 22 19.908 21.782C20.2843 21.5903 20.5903 21.2843 20.782 20.908C21 20.4802 21 19.9201 21 18.8V9.2C21 8.0799 21 7.51984 20.782 7.09202C20.5903 6.7157 20.2843 6.40974 19.908 6.21799C19.4802 6 18.9201 6 17.8 6H4.2C3.0799 6 2.51984 6 2.09202 6.21799C1.7157 6.40973 1.40973 6.71569 1.21799 7.09202C1 7.51984 1 8.07989 1 9.2Z" stroke="#563AFF" stroke-width="2" stroke-linecap="round" stroke-linejoin="round"/>
</g>
<defs>
<clipPath id="clip0_5745_1574">
<rect width="22" height="18" fill="white" transform="translate(0 5)"/>
</clipPath>
</defs>
</svg>
