<svg width="16" height="17" viewBox="0 0 16 17" fill="none" xmlns="http://www.w3.org/2000/svg">
<path d="M6.01522 15.25C6.54407 15.7168 7.23875 16 7.99959 16C8.76042 16 9.45511 15.7168 9.98396 15.25M12.4996 5.5C12.4996 4.30653 12.0255 3.16193 11.1816 2.31802C10.3377 1.47411 9.19306 1 7.99959 1C6.80611 1 5.66152 1.47411 4.81761 2.31802C3.97369 3.16193 3.49959 4.30653 3.49959 5.5C3.49959 7.81764 2.91494 9.40447 2.26184 10.4541C1.71093 11.3394 1.43548 11.7821 1.44558 11.9056C1.45676 12.0423 1.48573 12.0944 1.59592 12.1762C1.69543 12.25 2.14403 12.25 3.04123 12.25H12.9579C13.8551 12.25 14.3037 12.25 14.4033 12.1762C14.5134 12.0944 14.5424 12.0423 14.5536 11.9056C14.5637 11.7821 14.2882 11.3394 13.7373 10.4541C13.0842 9.40447 12.4996 7.81764 12.4996 5.5Z" stroke="#F5F5F5" stroke-width="1.5" stroke-linecap="round" stroke-linejoin="round"/>
</svg>
