<svg width="14" height="16" viewBox="0 0 14 16" fill="none" xmlns="http://www.w3.org/2000/svg">
<path d="M5.23597 13.9997C5.70606 14.4146 6.32355 14.6663 6.99985 14.6663C7.67615 14.6663 8.29364 14.4146 8.76373 13.9997M10.9998 5.33301C10.9998 4.27214 10.5784 3.25473 9.82828 2.50458C9.07813 1.75444 8.06072 1.33301 6.99985 1.33301C5.93898 1.33301 4.92157 1.75444 4.17142 2.50458C3.42128 3.25473 2.99985 4.27214 2.99985 5.33301C2.99985 7.39313 2.48016 8.80365 1.89963 9.73662C1.40993 10.5236 1.16509 10.9171 1.17407 11.0268C1.18401 11.1484 1.20976 11.1947 1.3077 11.2674C1.39616 11.333 1.79491 11.333 2.59242 11.333H11.4073C12.2048 11.333 12.6035 11.333 12.692 11.2674C12.7899 11.1947 12.8157 11.1484 12.8256 11.0268C12.8346 10.9171 12.5898 10.5236 12.1001 9.73662C11.5195 8.80365 10.9998 7.39313 10.9998 5.33301Z" stroke="#00D066" stroke-linecap="round" stroke-linejoin="round"/>
</svg>
