<svg width="16" height="17" viewBox="0 0 16 17" fill="none" xmlns="http://www.w3.org/2000/svg">
<path d="M3.49562 8.46433C3.39202 8.55906 3.33301 8.69293 3.33301 8.83333C3.33301 8.97373 3.39202 9.1076 3.49562 9.20233L6.41229 11.869C6.61609 12.0553 6.93235 12.0412 7.11869 11.8374C7.30502 11.6336 7.29086 11.3173 7.08706 11.131L5.12087 9.33333L12.4997 9.33333C12.7758 9.33333 12.9997 9.10946 12.9997 8.83333C12.9997 8.5572 12.7758 8.33333 12.4997 8.33333L5.12087 8.33333L7.08706 6.53566C7.29086 6.34933 7.30502 6.03306 7.11869 5.82926C6.93235 5.62546 6.61609 5.61133 6.41229 5.79766L3.49562 8.46433Z" fill="#E8E6EA"/>
</svg>
