<svg width="14" height="16" viewBox="0 0 14 16" fill="none" xmlns="http://www.w3.org/2000/svg">
<path d="M4.75538 2.02215C5.41306 1.57627 6.19399 1.33301 7 1.33301C8.06087 1.33301 9.07828 1.75444 9.82843 2.50458C10.5786 3.25473 11 4.27214 11 5.33301C11 6.73352 11.1801 7.83382 11.4323 8.68795M3.17245 4.17116C3.05911 4.54451 3 4.93571 3 5.33301C3 7.39313 2.48031 8.80365 1.89978 9.73662C1.41008 10.5236 1.16524 10.9171 1.17422 11.0268C1.18416 11.1484 1.20991 11.1947 1.30785 11.2674C1.39631 11.333 1.79506 11.333 2.59257 11.333H10.3333M5.23612 13.9997C5.70621 14.4146 6.3237 14.6663 7 14.6663C7.6763 14.6663 8.29379 14.4146 8.76388 13.9997M13 13.9997L1 1.99967" stroke="#F63D4F" stroke-linecap="round" stroke-linejoin="round"/>
</svg>
