<svg width="18" height="18" viewBox="0 0 18 18" fill="none" xmlns="http://www.w3.org/2000/svg">
<path d="M7.75033 15.5837V2.41699C7.75033 1.16699 7.21699 0.666992 5.89199 0.666992H2.52533C1.20033 0.666992 0.666992 1.16699 0.666992 2.41699V15.5837C0.666992 16.8337 1.20033 17.3337 2.52533 17.3337H5.89199C7.21699 17.3337 7.75033 16.8337 7.75033 15.5837ZM17.3337 6.10033V2.31699C17.3337 1.14199 16.8003 0.666992 15.4753 0.666992H12.1087C10.7837 0.666992 10.2503 1.14199 10.2503 2.31699V6.09199C10.2503 7.27533 10.7837 7.74199 12.1087 7.74199H15.4753C16.8003 7.75033 17.3337 7.27533 17.3337 6.10033ZM17.3337 15.4753V12.1087C17.3337 10.7837 16.8003 10.2503 15.4753 10.2503H12.1087C10.7837 10.2503 10.2503 10.7837 10.2503 12.1087V15.4753C10.2503 16.8003 10.7837 17.3337 12.1087 17.3337H15.4753C16.8003 17.3337 17.3337 16.8003 17.3337 15.4753Z" stroke="#E8E6EA" stroke-linecap="round" stroke-linejoin="round"/>
</svg>
