<svg width="20" height="20" viewBox="0 0 20 20" fill="none" xmlns="http://www.w3.org/2000/svg">
<path d="M18.3337 7.10033V3.31699C18.3337 2.14199 17.8003 1.66699 16.4753 1.66699H13.1087C11.7837 1.66699 11.2503 2.14199 11.2503 3.31699V7.09199C11.2503 8.27533 11.7837 8.74199 13.1087 8.74199H16.4753C17.8003 8.75033 18.3337 8.27533 18.3337 7.10033ZM18.3337 16.4753V13.1087C18.3337 11.7837 17.8003 11.2503 16.4753 11.2503H13.1087C11.7837 11.2503 11.2503 11.7837 11.2503 13.1087V16.4753C11.2503 17.8003 11.7837 18.3337 13.1087 18.3337H16.4753C17.8003 18.3337 18.3337 17.8003 18.3337 16.4753ZM8.75033 7.10033V3.31699C8.75033 2.14199 8.21699 1.66699 6.89199 1.66699H3.52533C2.20033 1.66699 1.66699 2.14199 1.66699 3.31699V7.09199C1.66699 8.27533 2.20033 8.74199 3.52533 8.74199H6.89199C8.21699 8.75033 8.75033 8.27533 8.75033 7.10033ZM8.75033 16.4753V13.1087C8.75033 11.7837 8.21699 11.2503 6.89199 11.2503H3.52533C2.20033 11.2503 1.66699 11.7837 1.66699 13.1087V16.4753C1.66699 17.8003 2.20033 18.3337 3.52533 18.3337H6.89199C8.21699 18.3337 8.75033 17.8003 8.75033 16.4753Z" stroke="#E8E6EA" stroke-linecap="round" stroke-linejoin="round"/>
</svg>
